<svg width="16" height="16" viewBox="0 0 16 16" fill="none" xmlns="http://www.w3.org/2000/svg">
<path d="M14.7093 0.625L11.5061 1.55656L12.803 0.67875C11.9843 0.86375 10.9499 1.22562 9.64988 1.80969L7.52801 4.02187L8.28113 2.47656C7.55301 2.88156 6.78113 3.4125 6.03738 4.03438L5.54363 6.04375L5.43738 4.55625C4.70301 5.23125 4.01238 5.98125 3.44051 6.77187C2.83957 7.6 2.36988 8.475 2.13457 9.34688L1.25582 8.75937C1.33457 9.5 1.57801 10.1438 1.97738 10.7344L0.926758 10.4125C1.16551 11.1469 1.55582 11.6219 2.21582 12.0063C1.84613 13.0469 1.6727 14.1344 1.48645 15.2188L2.06145 15.3156C2.72832 8.66875 7.43426 4.43125 11.6874 2.55375L11.903 3.09687C8.09988 4.8 5.14363 7.675 3.59676 11.8188C4.16238 11.8219 4.71551 11.7531 5.22801 11.6219L5.38113 9.71875L5.79051 11.4531C6.13113 11.3281 6.44363 11.1781 6.72176 11.0031L6.07488 9.64375L7.09988 10.7312C7.34988 10.5312 7.55613 10.3062 7.71238 10.0594C8.66238 8.575 9.65613 7.1 11.6124 5.86562L10.1843 5.35938L12.3749 5.425C12.7311 5.24375 13.1061 5.02187 13.3905 4.8125L11.8374 4.6875L14.1718 4.1375C14.353 3.95625 14.5218 3.76563 14.6749 3.575C15.2155 2.88938 15.5811 2.17562 15.4936 1.52656C15.453 1.20187 15.2593 0.896562 14.9436 0.725625C14.8655 0.685 14.7811 0.649062 14.7093 0.625Z" fill="#500000"/>
</svg>
