<svg width="16" height="16" viewBox="0 0 16 16" fill="none" xmlns="http://www.w3.org/2000/svg">
<path d="M15.5293 0.439453C12.5561 0.548703 10.145 1.19195 8.30171 2.18358L7.38077 3.72358L7.22555 2.84567C6.89634 3.07698 6.59074 3.32136 6.30949 3.57714L5.85052 4.98527L5.69327 4.19917C4.42296 5.62127 3.80546 7.31992 3.85146 9.07123C5.32874 6.14414 7.98909 3.67352 10.4755 2.16014L10.7792 2.6592C8.42568 4.09164 5.89209 6.44677 4.46084 9.16702H4.84071C5.45884 8.79139 6.06446 8.3277 6.6659 7.80952L5.71965 7.85936L7.41396 7.13767C8.8788 5.77402 10.3347 4.16973 11.8925 2.81642L11.1278 2.65423L12.8934 1.99705C13.7326 1.35689 14.6059 0.814422 15.5292 0.439453H15.5293ZM1.86027 9.75092V10.7012H6.06246V9.75092H1.86027ZM2.49702 11.2851L1.47652 12.1816L0.780273 14.8369L1.23434 15.333H6.77246L7.22746 14.8369L6.53121 12.1817L5.5654 11.2852H2.49702V11.2851Z" fill="white"/>
</svg>
